#!OML:ASF F:\VICON\USERDATA\INSTALL\Justin_Nancy\Justin_Nancy.ASF
:FULLY-SPECIFIED
:DEGREES
32
root 12.0192 17.2481 -24.0958 -1.09608 -4.04538 7.4483
lowerback 6.74354 -0.7685 -6.83153
upperback 1.156 -1.47314 1.46505
thorax -2.37175 -0.681135 5.49875
lowerneck -14.4247 -2.50691 -9.09605
upperneck 19.0005 -1.99941 3.12187
head 8.43028 -1.28721 2.32434
rclavicle 1.09332e-014 1.59028e-014
rhumerus -35.7217 -14.9089 -76.0714
rradius 33.9973
rwrist 6.10027
rhand -15.8785 9.44545
rfingers 7.12502
rthumb 10.3174 -20.2815
lclavicle 1.09332e-014 1.59028e-014
lhumerus -25.8193 1.34597 86.817
lradius 27.9367
lwrist -9.1135
lhand -13.1792 27.1384
lfingers 7.12502
lthumb 12.9204 56.7184
rfemur -33.7957 -4.96708 16.3541
rtibia 44.32
rfoot -7.05421 -7.2457
rtoes -0.581134
lfemur 0.465343 -0.0205864 -29.9461
ltibia 25.5827
lfoot -18.2714 3.5334
ltoes -5.15017
33
root 11.9915 17.2374 -23.8448 -0.877872 -3.63046 8.10649
lowerback 6.71412 -0.969982 -7.54006
upperback 0.596941 -1.81046 1.37391
thorax -2.87102 -0.805269 5.8423
lowerneck -13.0589 -2.5357 -9.23372
upperneck 18.8139 -2.16503 3.19414
head 8.13491 -1.37506 2.3581
rclavicle 1.08338e-014 1.43125e-014
rhumerus -37.0845 -14.8856 -75.5032
rradius 33.4309
rwrist 6.26648
rhand -15.9161 9.77193
rfingers 7.12502
rthumb 10.2811 -19.9568
lclavicle 1.08338e-014 1.43125e-014
lhumerus -26.3705 0.90784 86.7816
lradius 28.5884
lwrist -8.8923
lhand -13.7112 26.2823
lfingers 7.12502
lthumb 12.4076 55.8941
rfemur -33.8945 -5.15666 15.5971
rtibia 40.9078
rfoot -6.29781 -7.80654
rtoes -3.52955
lfemur 1.6892 0.129133 -30.5322
ltibia 24.6067
lfoot -18.4666 3.07543
ltoes -4.94582
34
root 11.9517 17.2217 -23.6266 -0.344942 -3.54697 8.13262
lowerback 6.7473 -1.07619 -7.6605
upperback 0.167841 -1.97642 1.4179
thorax -3.30775 -0.853316 5.98148
lowerneck -12.9669 -2.47728 -9.3062
upperneck 19.0989 -2.12333 3.39513
head 8.213 -1.34772 2.44546
rclavicle -5.26779e-015 -1.59028e-014
rhumerus -37.9076 -15.0936 -75.2406
rradius 32.9827
rwrist 6.47955
rhand -15.9937 9.39437
rfingers 7.12502
rthumb 10.2063 -20.338
lclavicle -5.26779e-015 -1.59028e-014
lhumerus -26.258 0.668826 86.5675
lradius 29.1221
lwrist -9.28341
lhand -14.8505 22.6768
lfingers 7.12502
lthumb 11.309 52.3519
rfemur -34.3155 -4.49726 15.54
rtibia 37.3292
rfoot -5.43995 -8.79584
rtoes -4.0626
lfemur 2.4658 0.398814 -30.3396
ltibia 23.5834
lfoot -18.4893 2.57717
ltoes -5.60279
35
root 11.9156 17.2029 -23.3962 -0.0155878 -3.56506 8.33201
lowerback 6.50336 -1.11885 -7.88126
upperback 0.252262 -2.02618 1.44684
thorax -3.0659 -0.88827 6.13097
lowerneck -13.5409 -2.46384 -9.15227
upperneck 19.0368 -2.02299 3.13315
head 8.28544 -1.30924 2.3393
rclavicle 3.27001e-014 -1.43125e-014
rhumerus -37.8054 -15.608 -74.9887
rradius 32.2323
rwrist 6.84543
rhand -16.0532 9.60884
rfingers 7.12502
rthumb 10.1488 -20.1264
lclavicle 3.27001e-014 -1.43125e-014
lhumerus -25.2951 0.384674 86.5126
lradius 29.5281
lwrist -9.32362
lhand -14.8535 24.0745
lfingers 7.12502
lthumb 11.306 53.7498
rfemur -34.3716 -3.75309 15.1978
rtibia 33.7216
rfoot -4.97179 -9.7912
rtoes -2.89599
lfemur 3.55431 0.768269 -30.3638
ltibia 22.4926
lfoot -18.5769 2.23531
ltoes -7.10819
36
root 11.8844 17.1865 -23.1597 0.242367 -3.3289 8.5496
lowerback 6.15318 -1.23969 -8.15748
upperback 0.330569 -2.17172 1.54461
thorax -2.74961 -0.974006 6.38767
lowerneck -14.6312 -2.41534 -9.88709
upperneck 19.9964 -1.8312 3.85296
head 8.80973 -1.21159 2.73444
rclavicle -5.1684e-014 -1.43125e-014
rhumerus -37.7601 -16.3721 -74.3814
rradius 31.2206
rwrist 7.69047
rhand -16.1743 10.045
rfingers 7.12502
rthumb 10.032 -19.6959
lclavicle -5.1684e-014 -1.43125e-014
lhumerus -24.62 0.375153 86.5336
lradius 30.1269
lwrist -9.11421
lhand -14.6017 25.9023
lfingers 7.12502
lthumb 11.5488 55.5642
rfemur -34.1736 -3.14184 14.7119
rtibia 30.0102
rfoot -4.74764 -10.9473
rtoes -2.22113
lfemur 4.58492 0.863497 -30.4278
ltibia 21.6188
lfoot -18.7114 1.74017
ltoes -8.24631
